<mxfile host="app.diagrams.net" modified="2024-03-06T07:45:51.052Z" agent="Mozilla/5.0 (Windows NT 10.0; Win64; x64) AppleWebKit/537.36 (KHTML, like Gecko) Chrome/120.0.0.0 Safari/537.36" etag="za1dYhH84uvChgpw8RVx" version="24.0.2" type="github">
  <diagram name="Page-1" id="2YBvvXClWsGukQMizWep">
    <mxGraphModel dx="1434" dy="746" grid="1" gridSize="10" guides="1" tooltips="1" connect="1" arrows="1" fold="1" page="1" pageScale="1" pageWidth="850" pageHeight="1100" math="0" shadow="0">
      <root>
        <mxCell id="0" />
        <mxCell id="1" parent="0" />
        <mxCell id="aM9ryv3xv72pqoxQDRHE-1" value="ProcedureDefinitionResource" style="shape=umlLifeline;perimeter=lifelinePerimeter;whiteSpace=wrap;html=1;container=0;dropTarget=0;collapsible=0;recursiveResize=0;outlineConnect=0;portConstraint=eastwest;newEdgeStyle={&quot;edgeStyle&quot;:&quot;elbowEdgeStyle&quot;,&quot;elbow&quot;:&quot;vertical&quot;,&quot;curved&quot;:0,&quot;rounded&quot;:0};labelBackgroundColor=none;" parent="1" vertex="1">
          <mxGeometry x="70" y="40" width="160" height="400" as="geometry" />
        </mxCell>
        <mxCell id="rU2qVYTwLn9NQLsQRafG-12" value="" style="html=1;points=[];perimeter=orthogonalPerimeter;outlineConnect=0;targetShapes=umlLifeline;portConstraint=eastwest;newEdgeStyle={&quot;edgeStyle&quot;:&quot;elbowEdgeStyle&quot;,&quot;elbow&quot;:&quot;vertical&quot;,&quot;curved&quot;:0,&quot;rounded&quot;:0};labelBackgroundColor=none;" vertex="1" parent="aM9ryv3xv72pqoxQDRHE-1">
          <mxGeometry x="75" y="70" width="10" height="50" as="geometry" />
        </mxCell>
        <mxCell id="aM9ryv3xv72pqoxQDRHE-5" value="ProcedureDefinitionServiceForWeb" style="shape=umlLifeline;perimeter=lifelinePerimeter;whiteSpace=wrap;html=1;container=0;dropTarget=0;collapsible=0;recursiveResize=0;outlineConnect=0;portConstraint=eastwest;newEdgeStyle={&quot;edgeStyle&quot;:&quot;elbowEdgeStyle&quot;,&quot;elbow&quot;:&quot;vertical&quot;,&quot;curved&quot;:0,&quot;rounded&quot;:0};labelBackgroundColor=none;" parent="1" vertex="1">
          <mxGeometry x="370" y="40" width="210" height="400" as="geometry" />
        </mxCell>
        <mxCell id="aM9ryv3xv72pqoxQDRHE-6" value="" style="html=1;points=[];perimeter=orthogonalPerimeter;outlineConnect=0;targetShapes=umlLifeline;portConstraint=eastwest;newEdgeStyle={&quot;edgeStyle&quot;:&quot;elbowEdgeStyle&quot;,&quot;elbow&quot;:&quot;vertical&quot;,&quot;curved&quot;:0,&quot;rounded&quot;:0};labelBackgroundColor=none;" parent="aM9ryv3xv72pqoxQDRHE-5" vertex="1">
          <mxGeometry x="98.75" y="90" width="12.5" height="290" as="geometry" />
        </mxCell>
        <mxCell id="aM9ryv3xv72pqoxQDRHE-7" value="save" style="html=1;verticalAlign=bottom;endArrow=block;edgeStyle=elbowEdgeStyle;elbow=horizontal;curved=0;rounded=0;labelBackgroundColor=none;fontColor=default;" parent="1" target="aM9ryv3xv72pqoxQDRHE-6" edge="1">
          <mxGeometry x="0.1146" relative="1" as="geometry">
            <mxPoint x="155" y="150" as="sourcePoint" />
            <Array as="points">
              <mxPoint x="250" y="150" />
              <mxPoint x="180" y="50" />
            </Array>
            <mxPoint x="340" y="150" as="targetPoint" />
            <mxPoint as="offset" />
          </mxGeometry>
        </mxCell>
        <mxCell id="rU2qVYTwLn9NQLsQRafG-1" value="" style="endArrow=classic;html=1;rounded=0;labelBackgroundColor=none;fontColor=default;" edge="1" parent="1">
          <mxGeometry width="50" height="50" relative="1" as="geometry">
            <mxPoint x="40" y="98" as="sourcePoint" />
            <mxPoint x="149.5" y="98" as="targetPoint" />
            <Array as="points">
              <mxPoint x="80" y="98" />
            </Array>
          </mxGeometry>
        </mxCell>
        <mxCell id="rU2qVYTwLn9NQLsQRafG-2" value="request" style="text;html=1;align=center;verticalAlign=middle;resizable=0;points=[];autosize=1;strokeColor=none;fillColor=none;labelBackgroundColor=none;" vertex="1" parent="1">
          <mxGeometry x="50" y="98" width="60" height="30" as="geometry" />
        </mxCell>
        <mxCell id="rU2qVYTwLn9NQLsQRafG-4" value="SecurityInvokerBase" style="shape=umlLifeline;perimeter=lifelinePerimeter;whiteSpace=wrap;html=1;container=0;dropTarget=0;collapsible=0;recursiveResize=0;outlineConnect=0;portConstraint=eastwest;newEdgeStyle={&quot;edgeStyle&quot;:&quot;elbowEdgeStyle&quot;,&quot;elbow&quot;:&quot;vertical&quot;,&quot;curved&quot;:0,&quot;rounded&quot;:0};labelBackgroundColor=none;" vertex="1" parent="1">
          <mxGeometry x="240" y="40" width="120" height="400" as="geometry" />
        </mxCell>
        <mxCell id="rU2qVYTwLn9NQLsQRafG-5" value="" style="html=1;points=[];perimeter=orthogonalPerimeter;outlineConnect=0;targetShapes=umlLifeline;portConstraint=eastwest;newEdgeStyle={&quot;edgeStyle&quot;:&quot;elbowEdgeStyle&quot;,&quot;elbow&quot;:&quot;vertical&quot;,&quot;curved&quot;:0,&quot;rounded&quot;:0};labelBackgroundColor=none;" vertex="1" parent="rU2qVYTwLn9NQLsQRafG-4">
          <mxGeometry x="55" y="70" width="10" height="30" as="geometry" />
        </mxCell>
        <mxCell id="rU2qVYTwLn9NQLsQRafG-7" value="check permission" style="html=1;verticalAlign=bottom;endArrow=block;edgeStyle=elbowEdgeStyle;elbow=vertical;curved=0;rounded=0;labelBackgroundColor=none;fontColor=default;" edge="1" parent="1" source="rU2qVYTwLn9NQLsQRafG-12" target="rU2qVYTwLn9NQLsQRafG-5">
          <mxGeometry relative="1" as="geometry">
            <mxPoint x="160" y="120" as="sourcePoint" />
            <Array as="points">
              <mxPoint x="275" y="120" />
              <mxPoint x="205" y="20" />
            </Array>
            <mxPoint x="530" y="120" as="targetPoint" />
            <mxPoint as="offset" />
          </mxGeometry>
        </mxCell>
        <mxCell id="rU2qVYTwLn9NQLsQRafG-14" value="&lt;font style=&quot;font-size: 11px;&quot;&gt;validate auto-created&lt;br&gt;&lt;/font&gt;&lt;div&gt;&lt;font style=&quot;font-size: 11px;&quot;&gt;calculate deletedEpcs&lt;/font&gt;&lt;/div&gt;&lt;div&gt;&lt;span style=&quot;font-size: 11px;&quot;&gt;dto to bean&lt;/span&gt;&lt;/div&gt;" style="text;html=1;align=center;verticalAlign=middle;resizable=0;points=[];autosize=1;strokeColor=none;fillColor=none;" vertex="1" parent="1">
          <mxGeometry x="340" y="160" width="130" height="60" as="geometry" />
        </mxCell>
        <mxCell id="rU2qVYTwLn9NQLsQRafG-16" value="ProcedureDefinitionServiceBeanLocal" style="shape=umlLifeline;perimeter=lifelinePerimeter;whiteSpace=wrap;html=1;container=0;dropTarget=0;collapsible=0;recursiveResize=0;outlineConnect=0;portConstraint=eastwest;newEdgeStyle={&quot;edgeStyle&quot;:&quot;elbowEdgeStyle&quot;,&quot;elbow&quot;:&quot;vertical&quot;,&quot;curved&quot;:0,&quot;rounded&quot;:0};labelBackgroundColor=none;" vertex="1" parent="1">
          <mxGeometry x="590" y="40" width="210" height="400" as="geometry" />
        </mxCell>
        <mxCell id="rU2qVYTwLn9NQLsQRafG-17" value="" style="html=1;points=[];perimeter=orthogonalPerimeter;outlineConnect=0;targetShapes=umlLifeline;portConstraint=eastwest;newEdgeStyle={&quot;edgeStyle&quot;:&quot;elbowEdgeStyle&quot;,&quot;elbow&quot;:&quot;vertical&quot;,&quot;curved&quot;:0,&quot;rounded&quot;:0};labelBackgroundColor=none;" vertex="1" parent="rU2qVYTwLn9NQLsQRafG-16">
          <mxGeometry x="98.75" y="150" width="12.5" height="100" as="geometry" />
        </mxCell>
        <mxCell id="rU2qVYTwLn9NQLsQRafG-19" value="saveAndMapExternalProcedureCodes" style="html=1;verticalAlign=bottom;endArrow=block;edgeStyle=elbowEdgeStyle;elbow=vertical;curved=0;rounded=0;labelBackgroundColor=none;fontColor=default;exitX=1.038;exitY=0.833;exitDx=0;exitDy=0;exitPerimeter=0;" edge="1" parent="1" target="rU2qVYTwLn9NQLsQRafG-17">
          <mxGeometry x="-0.0037" relative="1" as="geometry">
            <mxPoint x="480.00000000000006" y="199.98000000000002" as="sourcePoint" />
            <Array as="points">
              <mxPoint x="555.06" y="200" />
              <mxPoint x="635.06" y="200" />
              <mxPoint x="565.06" y="100" />
            </Array>
            <mxPoint x="683.81" y="200" as="targetPoint" />
            <mxPoint as="offset" />
          </mxGeometry>
        </mxCell>
        <mxCell id="rU2qVYTwLn9NQLsQRafG-20" value="&lt;font style=&quot;font-size: 11px;&quot;&gt;add history&lt;/font&gt;&lt;div&gt;&lt;font style=&quot;font-size: 11px;&quot;&gt;handle epcs&lt;/font&gt;&lt;/div&gt;&lt;div&gt;&lt;font style=&quot;font-size: 11px;&quot;&gt;auditing&lt;/font&gt;&lt;/div&gt;" style="text;html=1;align=center;verticalAlign=middle;resizable=0;points=[];autosize=1;strokeColor=none;fillColor=none;" vertex="1" parent="1">
          <mxGeometry x="700" y="185" width="80" height="60" as="geometry" />
        </mxCell>
        <mxCell id="rU2qVYTwLn9NQLsQRafG-23" value="ProcedureDefinitionCacheService" style="shape=umlLifeline;perimeter=lifelinePerimeter;whiteSpace=wrap;html=1;container=0;dropTarget=0;collapsible=0;recursiveResize=0;outlineConnect=0;portConstraint=eastwest;newEdgeStyle={&quot;edgeStyle&quot;:&quot;elbowEdgeStyle&quot;,&quot;elbow&quot;:&quot;vertical&quot;,&quot;curved&quot;:0,&quot;rounded&quot;:0};labelBackgroundColor=none;" vertex="1" parent="1">
          <mxGeometry x="810" y="40" width="190" height="400" as="geometry" />
        </mxCell>
        <mxCell id="rU2qVYTwLn9NQLsQRafG-24" value="" style="html=1;points=[];perimeter=orthogonalPerimeter;outlineConnect=0;targetShapes=umlLifeline;portConstraint=eastwest;newEdgeStyle={&quot;edgeStyle&quot;:&quot;elbowEdgeStyle&quot;,&quot;elbow&quot;:&quot;vertical&quot;,&quot;curved&quot;:0,&quot;rounded&quot;:0};labelBackgroundColor=none;" vertex="1" parent="rU2qVYTwLn9NQLsQRafG-23">
          <mxGeometry x="88.75" y="150" width="12.5" height="80" as="geometry" />
        </mxCell>
        <mxCell id="rU2qVYTwLn9NQLsQRafG-28" value="notify" style="html=1;verticalAlign=bottom;endArrow=block;edgeStyle=elbowEdgeStyle;elbow=vertical;curved=0;rounded=0;labelBackgroundColor=none;fontColor=default;exitX=1.038;exitY=0.833;exitDx=0;exitDy=0;exitPerimeter=0;" edge="1" parent="1" target="rU2qVYTwLn9NQLsQRafG-24">
          <mxGeometry x="-0.0037" relative="1" as="geometry">
            <mxPoint x="700" y="250.00000000000003" as="sourcePoint" />
            <Array as="points">
              <mxPoint x="775.06" y="250.02" />
              <mxPoint x="855.06" y="250.02" />
              <mxPoint x="785.06" y="150.02" />
            </Array>
            <mxPoint x="890" y="250" as="targetPoint" />
            <mxPoint as="offset" />
          </mxGeometry>
        </mxCell>
        <mxCell id="rU2qVYTwLn9NQLsQRafG-29" value="" style="edgeStyle=none;orthogonalLoop=1;jettySize=auto;html=1;rounded=0;" edge="1" parent="1" source="rU2qVYTwLn9NQLsQRafG-17" target="aM9ryv3xv72pqoxQDRHE-6">
          <mxGeometry width="100" relative="1" as="geometry">
            <mxPoint x="630" y="280" as="sourcePoint" />
            <mxPoint x="490" y="270" as="targetPoint" />
            <Array as="points">
              <mxPoint x="580" y="270" />
            </Array>
          </mxGeometry>
        </mxCell>
        <mxCell id="rU2qVYTwLn9NQLsQRafG-30" value="&lt;font style=&quot;font-size: 11px;&quot;&gt;return&lt;/font&gt;" style="text;html=1;align=center;verticalAlign=middle;resizable=0;points=[];autosize=1;strokeColor=none;fillColor=none;" vertex="1" parent="1">
          <mxGeometry x="565" y="248" width="50" height="30" as="geometry" />
        </mxCell>
        <mxCell id="rU2qVYTwLn9NQLsQRafG-32" value="DicomPrinterConfigurationServiceBeanLocal" style="shape=umlLifeline;perimeter=lifelinePerimeter;whiteSpace=wrap;html=1;container=0;dropTarget=0;collapsible=0;recursiveResize=0;outlineConnect=0;portConstraint=eastwest;newEdgeStyle={&quot;edgeStyle&quot;:&quot;elbowEdgeStyle&quot;,&quot;elbow&quot;:&quot;vertical&quot;,&quot;curved&quot;:0,&quot;rounded&quot;:0};labelBackgroundColor=none;" vertex="1" parent="1">
          <mxGeometry x="1010" y="40" width="240" height="400" as="geometry" />
        </mxCell>
        <mxCell id="rU2qVYTwLn9NQLsQRafG-33" value="" style="html=1;points=[];perimeter=orthogonalPerimeter;outlineConnect=0;targetShapes=umlLifeline;portConstraint=eastwest;newEdgeStyle={&quot;edgeStyle&quot;:&quot;elbowEdgeStyle&quot;,&quot;elbow&quot;:&quot;vertical&quot;,&quot;curved&quot;:0,&quot;rounded&quot;:0};labelBackgroundColor=none;" vertex="1" parent="rU2qVYTwLn9NQLsQRafG-32">
          <mxGeometry x="113.75" y="240" width="12.5" height="80" as="geometry" />
        </mxCell>
        <mxCell id="rU2qVYTwLn9NQLsQRafG-34" value="setSetting4ProcedureDefinition" style="html=1;verticalAlign=bottom;endArrow=block;edgeStyle=elbowEdgeStyle;elbow=horizontal;curved=0;rounded=0;labelBackgroundColor=none;fontColor=default;exitX=0.9;exitY=0.864;exitDx=0;exitDy=0;exitPerimeter=0;" edge="1" parent="1">
          <mxGeometry x="0.1186" relative="1" as="geometry">
            <mxPoint x="480" y="310.0799999999999" as="sourcePoint" />
            <Array as="points">
              <mxPoint x="581" y="310" />
              <mxPoint x="511" y="210" />
            </Array>
            <mxPoint x="1123.75" y="310" as="targetPoint" />
            <mxPoint as="offset" />
          </mxGeometry>
        </mxCell>
        <mxCell id="rU2qVYTwLn9NQLsQRafG-35" value="" style="edgeStyle=none;orthogonalLoop=1;jettySize=auto;html=1;rounded=0;" edge="1" parent="1" target="aM9ryv3xv72pqoxQDRHE-6">
          <mxGeometry width="100" relative="1" as="geometry">
            <mxPoint x="1120" y="340" as="sourcePoint" />
            <mxPoint x="1170" y="340" as="targetPoint" />
            <Array as="points" />
          </mxGeometry>
        </mxCell>
        <mxCell id="rU2qVYTwLn9NQLsQRafG-36" value="&lt;font style=&quot;font-size: 11px;&quot;&gt;return&lt;/font&gt;" style="text;html=1;align=center;verticalAlign=middle;resizable=0;points=[];autosize=1;strokeColor=none;fillColor=none;" vertex="1" parent="1">
          <mxGeometry x="805" y="318" width="50" height="30" as="geometry" />
        </mxCell>
        <mxCell id="rU2qVYTwLn9NQLsQRafG-37" value="" style="edgeStyle=none;orthogonalLoop=1;jettySize=auto;html=1;rounded=0;" edge="1" parent="1">
          <mxGeometry width="100" relative="1" as="geometry">
            <mxPoint x="470" y="410" as="sourcePoint" />
            <mxPoint x="150.75" y="410" as="targetPoint" />
            <Array as="points">
              <mxPoint x="310" y="410" />
            </Array>
          </mxGeometry>
        </mxCell>
        <mxCell id="rU2qVYTwLn9NQLsQRafG-38" value="return" style="edgeLabel;html=1;align=center;verticalAlign=middle;resizable=0;points=[];" vertex="1" connectable="0" parent="rU2qVYTwLn9NQLsQRafG-37">
          <mxGeometry x="0.184" y="-4" relative="1" as="geometry">
            <mxPoint y="-6" as="offset" />
          </mxGeometry>
        </mxCell>
        <mxCell id="rU2qVYTwLn9NQLsQRafG-39" value="&lt;font style=&quot;font-size: 11px;&quot;&gt;bean to dto&lt;/font&gt;" style="text;html=1;align=center;verticalAlign=middle;resizable=0;points=[];autosize=1;strokeColor=none;fillColor=none;" vertex="1" parent="1">
          <mxGeometry x="480" y="358" width="80" height="30" as="geometry" />
        </mxCell>
        <mxCell id="rU2qVYTwLn9NQLsQRafG-40" value="" style="edgeStyle=none;orthogonalLoop=1;jettySize=auto;html=1;rounded=0;" edge="1" parent="1">
          <mxGeometry width="100" relative="1" as="geometry">
            <mxPoint x="149.25" y="420" as="sourcePoint" />
            <mxPoint x="50" y="420" as="targetPoint" />
            <Array as="points" />
          </mxGeometry>
        </mxCell>
        <mxCell id="rU2qVYTwLn9NQLsQRafG-47" value="&lt;font style=&quot;font-size: 11px;&quot;&gt;response&lt;/font&gt;" style="text;html=1;align=center;verticalAlign=middle;resizable=0;points=[];autosize=1;strokeColor=none;fillColor=none;" vertex="1" parent="1">
          <mxGeometry x="65" y="398" width="70" height="30" as="geometry" />
        </mxCell>
      </root>
    </mxGraphModel>
  </diagram>
</mxfile>
